name Walk8.mot
datacolumns 19
datarows 22
range 2.72000000 2.74100000
endheader

                time	   L_ground_force_vx	   L_ground_force_vy	   L_ground_force_vz	   L_ground_force_px	   L_ground_force_py	   L_ground_force_pz	   R_ground_force_vx	   R_ground_force_vy	   R_ground_force_vz	   R_ground_force_px	   R_ground_force_py	   R_ground_force_pz	   L_ground_torque_x	   L_ground_torque_y	   L_ground_torque_z	   R_ground_torque_x	   R_ground_torque_y	   R_ground_torque_z	
          2.72000000	          0.01273662	          0.04987079	          0.00481876	         -0.00014274	          0.00000000	         -0.00003360	        -31.84369085	        936.36891987	        -61.39927590	          0.35714257	          0.00000000	          0.13921769	          0.00000000	          0.00023472	          0.00000000	          0.00000000	          8.76591408	          0.00000000	
          2.72100000	          0.01131441	          0.04536770	          0.00452275	         -0.00013711	          0.00000000	         -0.00003261	        -31.68255378	        934.77155492	        -61.26683748	          0.35759423	          0.00000000	          0.13930332	          0.00000000	          0.00022374	          0.00000000	          0.00000000	          8.73324329	          0.00000000	
          2.72200000	          0.00997037	          0.04107605	          0.00423481	         -0.00013145	          0.00000000	         -0.00003157	        -31.52455520	        933.19337663	        -61.13136232	          0.35804658	          0.00000000	          0.13938882	          0.00000000	          0.00021284	          0.00000000	          0.00000000	          8.70175163	          0.00000000	
          2.72300000	          0.00870293	          0.03699408	          0.00395536	         -0.00012577	          0.00000000	         -0.00003051	        -31.36958526	        931.63558373	        -60.99267385	          0.35849948	          0.00000000	          0.13947417	          0.00000000	          0.00020207	          0.00000000	          0.00000000	          8.67143482	          0.00000000	
          2.72400000	          0.00751036	          0.03311938	          0.00368471	         -0.00012009	          0.00000000	         -0.00002942	        -31.21752460	        930.09933057	        -60.85061876	          0.35895279	          0.00000000	          0.13955934	          0.00000000	          0.00019145	          0.00000000	          0.00000000	          8.64228521	          0.00000000	
          2.72500000	          0.00639081	          0.02944897	          0.00342316	         -0.00011445	          0.00000000	         -0.00002831	        -31.06824474	        928.58572433	        -60.70506897	          0.35940635	          0.00000000	          0.13964429	          0.00000000	          0.00018100	          0.00000000	          0.00000000	          8.61429211	          0.00000000	
          2.72600000	          0.00534231	          0.02597935	          0.00317091	         -0.00010885	          0.00000000	         -0.00002719	        -30.92160877	        927.09582366	        -60.55592306	          0.35986002	          0.00000000	          0.13972900	          0.00000000	          0.00017077	          0.00000000	          0.00000000	          8.58744200	          0.00000000	
          2.72700000	          0.00436276	          0.02270657	          0.00292812	         -0.00010332	          0.00000000	         -0.00002606	        -30.77747214	        925.63063811	        -60.40310735	          0.36031364	          0.00000000	          0.13981344	          0.00000000	          0.00016075	          0.00000000	          0.00000000	          8.56171862	          0.00000000	
          2.72800000	          0.00345001	          0.01962625	          0.00269491	         -0.00009787	          0.00000000	         -0.00002493	        -30.63568358	        924.19112815	        -60.24657677	          0.36076706	          0.00000000	          0.13989758	          0.00000000	          0.00015099	          0.00000000	          0.00000000	          8.53710308	          0.00000000	
          2.72900000	          0.00260183	          0.01673366	          0.00247135	         -0.00009251	          0.00000000	         -0.00002380	        -30.49608597	        922.77820547	        -60.08631581	          0.36122013	          0.00000000	          0.13998141	          0.00000000	          0.00014148	          0.00000000	          0.00000000	          8.51357389	          0.00000000	
          2.73000000	          0.00181594	          0.01402379	          0.00225745	         -0.00008726	          0.00000000	         -0.00002268	        -30.35851716	        921.39273363	        -59.92233931	          0.36167269	          0.00000000	          0.14006490	          0.00000000	          0.00013224	          0.00000000	          0.00000000	          8.49110715	          0.00000000	
          2.73100000	          0.00109000	          0.01149133	          0.00205321	         -0.00008212	          0.00000000	         -0.00002156	        -30.22281070	        920.03552865	        -59.75469342	          0.36212460	          0.00000000	          0.14014803	          0.00000000	          0.00012329	          0.00000000	          0.00000000	          8.46967678	          0.00000000	
          2.73200000	          0.00042167	          0.00913076	          0.00185858	         -0.00007711	          0.00000000	         -0.00002046	        -30.08879671	        918.70735879	        -59.58345621	          0.36257570	          0.00000000	          0.14023080	          0.00000000	          0.00011464	          0.00000000	          0.00000000	          8.44925454	          0.00000000	
          2.73300000	         -0.00019144	          0.00693640	          0.00167348	         -0.00007224	          0.00000000	         -0.00001938	        -29.95630257	        917.40894316	        -59.40873812	          0.36302585	          0.00000000	          0.14031317	          0.00000000	          0.00010629	          0.00000000	          0.00000000	          8.42981008	          0.00000000	
          2.73400000	         -0.00075169	          0.00490239	          0.00149778	         -0.00006751	          0.00000000	         -0.00001831	        -29.82515358	        916.14094885	        -59.23068195	          0.36347492	          0.00000000	          0.14039515	          0.00000000	          0.00009824	          0.00000000	          0.00000000	          8.41131064	          0.00000000	
          2.73500000	         -0.00126146	          0.00302281	          0.00133137	         -0.00006292	          0.00000000	         -0.00001727	        -29.69517346	        914.90398756	        -59.04946253	          0.36392276	          0.00000000	          0.14047671	          0.00000000	          0.00009051	          0.00000000	          0.00000000	          8.39372090	          0.00000000	
          2.73600000	         -0.00172313	          0.00129161	          0.00117408	         -0.00005849	          0.00000000	         -0.00001625	        -29.56618467	        913.69861250	        -58.86528581	          0.36436925	          0.00000000	          0.14055785	          0.00000000	          0.00008310	          0.00000000	          0.00000000	          8.37700290	          0.00000000	
          2.73700000	         -0.00213903	         -0.00029728	          0.00102572	         -0.00005421	          0.00000000	         -0.00001526	        -29.43800861	        912.52531632	        -58.67838769	          0.36481426	          0.00000000	          0.14063854	          0.00000000	          0.00007600	          0.00000000	          0.00000000	          8.36111605	          0.00000000	
          2.73800000	         -0.00251149	         -0.00174995	          0.00088610	         -0.00005009	          0.00000000	         -0.00001429	        -29.31046592	        911.38453059	        -58.48903243	          0.36525768	          0.00000000	          0.14071878	          0.00000000	          0.00006922	          0.00000000	          0.00000000	          8.34601755	          0.00000000	
          2.73900000	         -0.00284278	         -0.00307249	          0.00075500	         -0.00004613	          0.00000000	         -0.00001335	        -29.18337687	        910.27662660	        -58.29751086	          0.36569941	          0.00000000	          0.14079855	          0.00000000	          0.00006275	          0.00000000	          0.00000000	          8.33166276	          0.00000000	
          2.74000000	         -0.00313517	         -0.00427098	          0.00063220	         -0.00004234	          0.00000000	         -0.00001244	        -29.05656184	        909.20191750	        -58.10413834	          0.36613933	          0.00000000	          0.14087783	          0.00000000	          0.00005660	          0.00000000	          0.00000000	          8.31800576	          0.00000000	
          2.74100000	         -0.00339085	         -0.00535142	          0.00051745	         -0.00003870	          0.00000000	         -0.00001156	        -28.92984191	        908.16066116	        -57.90925257	          0.36657735	          0.00000000	          0.14095663	          0.00000000	          0.00005075	          0.00000000	          0.00000000	          8.30499995	          0.00000000	
